<svg width="24" height="24" viewBox="0 0 24 24" fill="none" xmlns="http://www.w3.org/2000/svg">
<path d="M12 20C11.7348 20 11.4804 19.8314 11.2929 19.5314C11.1054 19.2313 11 18.8243 11 18.4V5.6C11 5.17565 11.1054 4.76869 11.2929 4.46863C11.4804 4.16857 11.7348 4 12 4C12.2652 4 12.5196 4.16857 12.7071 4.46863C12.8946 4.76869 13 5.17565 13 5.6V18.4C13 18.8243 12.8946 19.2313 12.7071 19.5314C12.5196 19.8314 12.2652 20 12 20Z" fill="#272B3D"/>
<path d="M18.4 13H5.6C5.17565 13 4.76869 12.8946 4.46863 12.7071C4.16857 12.5196 4 12.2652 4 12C4 11.7348 4.16857 11.4804 4.46863 11.2929C4.76869 11.1054 5.17565 11 5.6 11H18.4C18.8243 11 19.2313 11.1054 19.5314 11.2929C19.8314 11.4804 20 11.7348 20 12C20 12.2652 19.8314 12.5196 19.5314 12.7071C19.2313 12.8946 18.8243 13 18.4 13Z" fill="#272B3D"/>
</svg>
